#!OML:ASF F:\twosubjects\two\wednesday\Session 1\rory1.ASF
:FULLY-SPECIFIED
:DEGREES
1125
root 8.86179 17.5746 11.6853 -177.058 -17.7707 183.421
lowerback 14.9295 -1.94029 -5.89507
upperback 3.99495 -3.78389 2.33302
thorax -3.57354 -2.05029 6.48302
lowerneck -11.4774 -5.15248 -6.40447
upperneck 1.76286 -6.49459 7.17465
head 2.81678 -3.08491 2.81436
rclavicle 7.95139e-016 3.18055e-015
rhumerus -36.9319 -8.63178 -64.3147
rradius 116.434
rwrist -15.1896
rhand -24.7883 52.7547
rfingers 7.12502
rthumb 1.71602 22.7818
lclavicle 7.95139e-016 3.18055e-015
lhumerus 1.92421 -14.445 69.4423
lradius 113.992
lwrist 20.5273
lhand -29.9339 8.63056
lfingers 7.12502
lthumb -3.25362 38.5855
rfemur -24.6603 -5.09917 19.0785
rtibia 48.9198
rfoot -20.5425 -17.8748
rtoes 11.5739
lfemur -33.933 -2.26374 -11.2218
ltibia 50.0485
lfoot -17.5076 -13.5829
ltoes -21.5108
1126
root 8.83258 17.658 11.6267 -177.135 -16.8449 182.925
lowerback 14.4129 -1.74463 -6.23426
upperback 3.93796 -3.53532 2.14286
thorax -3.38327 -1.9239 6.40102
lowerneck -11.2084 -5.05013 -6.26558
upperneck 1.93412 -6.33576 6.38701
head 3.10306 -3.03747 2.84654
rclavicle -5.87409e-014 2.5842e-014
rhumerus -36.6631 -8.04029 -64.7257
rradius 116.09
rwrist -14.1125
rhand -26.1392 54.1719
rfingers 7.12502
rthumb 0.411273 24.1925
lclavicle -5.87409e-014 2.5842e-014
lhumerus 0.15608 -14.5765 70.0207
lradius 114.88
lwrist 20.1757
lhand -29.1756 8.21168
lfingers 7.12502
lthumb -2.5213 38.1765
rfemur -23.4098 -4.5958 18.4226
rtibia 47.3553
rfoot -20.5613 -17.1758
rtoes 13.033
lfemur -32.3495 -1.93889 -11.7686
ltibia 48.5685
lfoot -17.2104 -13.3683
ltoes -18.3399
1127
root 8.80671 17.7459 11.5648 -177.467 -15.7626 182.725
lowerback 14.133 -1.48005 -6.26369
upperback 3.90632 -3.17126 1.97413
thorax -3.3294 -1.74029 6.16552
lowerneck -11.461 -5.02007 -5.85737
upperneck 2.80372 -6.29778 5.69018
head 3.39751 -3.01927 2.52898
rclavicle -5.17834e-014 1.55052e-014
rhumerus -36.2718 -7.26807 -65.0328
rradius 115.799
rwrist -12.7434
rhand -27.449 54.9841
rfingers 7.12502
rthumb -0.853785 25.0061
lclavicle -5.17834e-014 1.55052e-014
lhumerus -1.77174 -14.7874 70.5397
lradius 115.765
lwrist 20.0239
lhand -28.9787 7.9157
lfingers 7.12502
lthumb -2.33117 37.8827
rfemur -21.9947 -3.8943 18.099
rtibia 45.7782
rfoot -19.9949 -16.6673
rtoes 13.2917
lfemur -30.5005 -1.61383 -11.9687
ltibia 46.9958
lfoot -16.9728 -12.8716
ltoes -17.3066
1128
root 8.77174 17.8236 11.5048 -177.755 -14.4568 182.384
lowerback 13.8402 -1.14549 -6.16178
upperback 3.88631 -2.70329 1.60692
thorax -3.28609 -1.50463 5.62908
lowerneck -11.7685 -4.97673 -5.42958
upperneck 3.70544 -6.28721 5.55305
head 3.34871 -2.98567 2.15506
rclavicle -3.53837e-014 -2.38542e-015
rhumerus -35.6171 -6.83306 -65.3477
rradius 115.883
rwrist -13.0719
rhand -27.972 54.9005
rfingers 7.12502
rthumb -1.35891 24.9251
lclavicle -3.53837e-014 -2.38542e-015
lhumerus -3.58622 -15.1972 70.8337
lradius 116.618
lwrist 19.5757
lhand -29.3451 7.96375
lfingers 7.12502
lthumb -2.68499 37.9266
rfemur -20.7077 -3.2544 17.579
rtibia 44.2519
rfoot -19.3704 -16.0427
rtoes 10.8648
lfemur -28.6045 -1.17985 -12.4209
ltibia 45.3776
lfoot -16.8875 -11.8456
ltoes -20.0091
1129
root 8.72952 17.8924 11.4504 -177.865 -13.0245 181.723
lowerback 13.3285 -0.792154 -6.34689
upperback 3.90255 -2.23736 1.20398
thorax -3.06607 -1.27829 5.212
lowerneck -11.7908 -4.82793 -5.28397
upperneck 3.9244 -6.10406 5.45134
head 3.40126 -2.89306 2.11161
rclavicle 8.94531e-016 -7.15625e-015
rhumerus -34.5416 -6.3496 -65.8272
rradius 115.6
rwrist -12.471
rhand -31.2207 57.9378
rfingers 7.12502
rthumb -4.49621 28.0055
lclavicle 8.94531e-016 -7.15625e-015
lhumerus -5.51357 -15.4612 71.2488
lradius 117.405
lwrist 18.9725
lhand -29.5171 7.88867
lfingers 7.12502
lthumb -2.85114 37.8494
rfemur -19.6664 -2.69327 16.6747
rtibia 42.7781
rfoot -19.0483 -15.3273
rtoes 8.90432
lfemur -26.8153 -0.727807 -13.2512
ltibia 43.7414
lfoot -16.7109 -10.905
ltoes -21.0798
1130
root 8.6927 17.9582 11.3954 -177.975 -11.5042 181.102
lowerback 12.6881 -0.497067 -6.72288
upperback 3.89319 -1.8499 0.98641
thorax -2.77381 -1.09241 5.11436
lowerneck -11.537 -4.62564 -5.44779
upperneck 4.1405 -5.80557 5.29769
head 3.41032 -2.7523 2.11542
rclavicle 1.17283e-014 -2.14687e-014
rhumerus -33.2465 -5.47245 -66.0679
rradius 115.69
rwrist -12.9855
rhand -26.6902 55.1013
rfingers 7.12502
rthumb -0.120842 25.1216
lclavicle 1.17283e-014 -2.14687e-014
lhumerus -8.03081 -15.3068 71.9789
lradius 118.159
lwrist 18.5831
lhand -29.6403 7.21898
lfingers 7.12502
lthumb -2.97005 37.178
rfemur -18.6798 -1.87476 15.8353
rtibia 41.3462
rfoot -18.7769 -14.73
rtoes 8.62187
lfemur -25.0819 -0.305548 -13.9902
ltibia 42.1235
lfoot -16.3486 -10.221
ltoes -19.0683
1131
root 8.65492 18.0256 11.3365 -178.137 -9.86598 180.804
lowerback 12.0483 -0.230771 -6.70707
upperback 3.82832 -1.44164 0.800477
thorax -2.55397 -0.888977 4.83319
lowerneck -11.3083 -4.43247 -5.46799
upperneck 4.54141 -5.53701 5.06259
head 3.47473 -2.6259 2.06696
rclavicle 2.68359e-015 7.95139e-016
rhumerus -31.9389 -4.02263 -66.5512
rradius 115.287
rwrist -11.1992
rhand -29.1515 57.3529
rfingers 7.12502
rthumb -2.49798 27.3878
lclavicle 2.68359e-015 7.95139e-016
lhumerus -10.7078 -15.0604 72.6363
lradius 118.85
lwrist 18.3017
lhand -29.8063 6.56811
lfingers 7.12502
lthumb -3.13038 36.5249
rfemur -17.6954 -0.907278 15.3375
rtibia 39.921
rfoot -18.2528 -14.0174
rtoes 7.78204
lfemur -23.4085 0.19704 -14.3875
ltibia 40.5422
lfoot -15.7723 -9.49989
ltoes -16.5807
1132
root 8.61418 18.0921 11.2819 -178.302 -8.19414 180.633
lowerback 11.6177 -0.0115517 -6.355
upperback 3.70141 -1.07511 0.540274
thorax -2.51322 -0.696367 4.30165
lowerneck -11.2061 -4.17333 -5.31913
upperneck 4.88691 -5.20322 4.85111
head 3.53625 -2.46432 2.0013
rclavicle -3.70733e-014 6.75868e-015
rhumerus -30.2843 -3.27021 -66.7599
rradius 115.806
rwrist -13.6126
rhand -26.3214 54.5281
rfingers 7.12502
rthumb 0.235372 24.5485
lclavicle -3.70733e-014 6.75868e-015
lhumerus -13.3132 -14.7764 73.0996
lradius 119.405
lwrist 18.0983
lhand -30.0781 6.30493
lfingers 7.12502
lthumb -3.39286 36.2577
rfemur -16.819 -0.0063254 14.9668
rtibia 38.4896
rfoot -17.653 -13.1914
rtoes 7.54634
lfemur -21.8124 0.743652 -14.6758
ltibia 38.9745
lfoot -15.3036 -8.59648
ltoes -15.3998
1133
root 8.57399 18.1543 11.2309 -178.436 -6.42028 180.255
lowerback 11.3304 0.296276 -6.10977
upperback 3.52144 -0.623081 0.150228
thorax -2.6071 -0.456666 3.69075
lowerneck -11.2624 -3.89359 -5.01197
upperneck 5.34769 -4.86109 4.63138
head 3.65526 -2.29428 1.90482
rclavicle 1.33186e-014 -3.53837e-014
rhumerus -28.7623 -2.3457 -67.2418
rradius 116.007
rwrist -14.0294
rhand -26.2292 53.7903
rfingers 7.12502
rthumb 0.324366 23.8108
lclavicle 1.33186e-014 -3.53837e-014
lhumerus -15.8944 -14.6384 73.5282
lradius 119.958
lwrist 18.0007
lhand -30.4873 6.91783
lfingers 7.12502
lthumb -3.78802 36.8639
rfemur -16.0324 0.908341 14.3809
rtibia 37.0859
rfoot -17.1084 -12.4291
rtoes 7.3022
lfemur -20.2037 1.30277 -15.1938
ltibia 37.369
lfoot -15.253 -7.45419
ltoes -15.4745
